<?xml version="1.0" encoding="UTF-8" standalone="no"?>
<svg
   width="2600"
   height="2600"
   overflow="hidden"
   version="1.1"
   id="svg3"
   sodipodi:docname="logo.svg"
   xmlns:inkscape="http://www.inkscape.org/namespaces/inkscape"
   xmlns:sodipodi="http://sodipodi.sourceforge.net/DTD/sodipodi-0.dtd"
   xmlns="http://www.w3.org/2000/svg"
   xmlns:svg="http://www.w3.org/2000/svg">
  <sodipodi:namedview
     id="namedview3"
     pagecolor="#ffffff"
     bordercolor="#000000"
     borderopacity="0.25"
     inkscape:showpageshadow="2"
     inkscape:pageopacity="0.0"
     inkscape:pagecheckerboard="0"
     inkscape:deskcolor="#d1d1d1" />
  <defs
     id="defs1">
    <clipPath
       id="clip0">
      <rect
         x="-1146"
         y="-110"
         width="3315"
         height="3024"
         id="rect1" />
    </clipPath>
  </defs>
  <g
     clip-path="url(#clip0)"
     transform="matrix(0.87398903,0,0,0.87398903,1039.7499,271.28323)"
     id="g3">
    <rect
       x="-1144"
       y="-110"
       width="2557"
       height="2556"
       fill="#333f50"
       id="rect2" />
    <rect
       x="-1143.5"
       y="1867.5"
       width="2557"
       height="391"
       stroke="#ffffff"
       stroke-width="4.58333"
       stroke-miterlimit="8"
       fill="#ffffff"
       id="rect3" />
    <path
       d="m -633.884,1359.03 c -57.471,0.21 -57.686,88.67 -0.432,88.88 58.121,0.44 58.336,-89.1 0.432,-88.88 z m -286.96,-80.45 c 18.037,-0.97 34.669,3.99 46.794,9.2 l 19.592,10.59 0.059,0.14 -18.464,12.71 c -11.529,6.51 -27.569,13.26 -45.606,14.23 -36.074,1.94 -66.531,-19.87 -66.531,-19.87 0,0 28.082,-25.06 64.156,-27 z m -26.538,-110.28 c 0,0 37.378,4.31 62.874,29.77 15.986,15.97 23.333,36.68 26.791,49.84 39.752,46.17 30.895,99.25 2.592,146.93 123.8,-68.39 178.246,-229.99 345.043,-220.72 126.177,7.13 209.574,96.45 263.588,201.52 79.293,-135.49 385.878,-174.76 511.406,-172.17 -1.728,173.68 -32.841,330.1 -123.152,447.04 31.545,18.12 151.24,-2.16 151.24,-2.16 0,0 -65.034,87.17 -249.3294,195.04 -184.7286,107.88 -531.9316,149.95 -715.3646,-75.08 -90.095,-110.68 -93.552,-264.95 -199.852,-349.52 -24.199,31.72 -55.527,59.55 -84.045,79.4 -9.075,6.04 -17.502,-8.63 -8.642,-14.68 37.16,-25.67 72.593,-59.54 95.929,-98.38 12.099,-20.5 22.468,-44.01 21.604,-68.39 l -7.699,-18.23 0.086,-0.06 -0.145,-0.08 -17.304,-40.97 c -13.179,-3.88 -31.545,-11.65 -46.019,-26.1 -25.496,-25.68 -29.601,-63 -29.601,-63 z m 169.328,-10.3 c 0,0 10.372,36.04 -3.672,69.27 -13.827,33.24 -46.882,51.15 -46.882,51.15 0,0 -10.372,-36.04 3.672,-69.27 13.827,-33.24 46.882,-51.15 46.882,-51.15 z"
       fill="#ffffff"
       fill-rule="evenodd"
       id="path3" />
    <text
       fill="#333f50"
       font-family="Georgia, Georgia_MSFontService, sans-serif"
       font-weight="400"
       font-size="761px"
       transform="translate(-637.735,2281)"
       id="text3">Canary</text>
  </g>
</svg>
